<?xml version="1.0" encoding="UTF-8"?>
<svg width="447px" height="439px" viewBox="0 0 447 439" version="1.1" xmlns="http://www.w3.org/2000/svg" xmlns:xlink="http://www.w3.org/1999/xlink">
    <!-- Generator: Sketch 51.1 (57501) - http://www.bohemiancoding.com/sketch -->
    <title>Artboard</title>
    <desc>Created with Sketch.</desc>
    <defs></defs>
    <g id="Artboard" stroke="none" stroke-width="1" fill="none" fill-rule="evenodd">
        <g id="Group-4" transform="translate(56.000000, 52.000000)">
            <polygon id="Fill-1" fill="#E40078" points="162.0747 0.0006 151.4417 23.1756 135.8727 2.9856 128.9967 27.5306 110.4657 10.0256 107.5177 35.3586 86.4807 20.9716 87.5207 46.4296 64.4917 35.5116 69.5047 60.5216 45.0397 53.3396 53.9067 77.2316 28.6187 73.9706 41.1257 96.1826 15.6527 96.9296 31.4627 116.9036 6.4167 121.6136 25.1627 138.8836 1.1607 147.4546 22.3747 161.5816 -0.0003 173.8066 23.1827 184.4336 2.9957 200.0026 27.5337 206.8746 10.0347 225.4056 35.3557 228.3566 20.9717 249.4046 46.4507 248.3486 35.5217 271.3876 60.5217 266.3746 53.3407 290.8286 77.2477 281.9566 73.9737 307.2386 96.1927 294.7556 96.9167 320.2256 116.9177 304.4096 121.6167 329.4546 138.8867 310.7046 147.4547 334.7106 161.5847 313.4956 173.8067 335.8676 184.4357 312.6926 200.0097 332.8826 206.8707 308.3366 225.4047 325.8396 228.3537 300.5136 249.4077 314.9146 248.3517 289.4276 271.3907 300.3596 266.3637 275.3566 290.8357 282.5386 281.9647 258.6376 307.2347 261.9006 294.7497 239.6936 320.2367 238.9456 304.4057 218.9606 329.4517 214.2576 310.7077 196.9886 334.7207 188.4166 313.4917 174.2896 335.8607 162.0616 312.6887 151.4416 332.8917 135.8766 308.3337 129.0036 325.8357 110.4666 300.5057 107.5216 314.9077 86.4776 289.4347 87.5206 300.3497 64.4846 275.3457 69.5016 282.5197 45.0426 258.6227 53.9036 261.8937 28.6296 239.6777 41.1256 238.9547 15.6486 218.9537 31.4616 214.2367 6.4106 196.9787 25.1596 188.4207 1.1506 174.2937 22.3796"></polygon>
            <path d="M262.3943,227.3871 C262.0043,227.5301 261.2373,227.8001 260.7913,227.7861 C260.4373,227.6931 260.2663,227.3101 259.0363,223.9561 L256.2513,216.2841 L257.7493,215.7411 C259.6103,215.0741 260.5243,215.3221 261.2223,217.2121 L262.4503,216.7671 L261.1083,213.0581 L247.6213,217.9661 L248.9623,221.6721 L250.1973,221.2311 C249.4913,219.3291 250.0333,218.5541 251.9073,217.8791 L253.2803,217.3751 L255.8763,224.5331 C257.2813,228.3741 257.3813,228.7741 257.1113,229.1151 C256.7773,229.4271 256.0083,229.7161 255.6233,229.8411 L255.3063,229.9621 L255.7073,231.0541 L263.0923,228.3571 L262.6933,227.2721 L262.3943,227.3871 Z M285.3083,219.0401 C283.6053,219.5451 283.4803,219.4751 282.9203,217.9461 L279.6043,208.8561 C279.2633,207.9211 279.1523,207.6011 280.2473,207.2011 L280.9083,206.9651 L280.5493,205.9891 L275.3353,207.8931 L274.8523,218.2441 L267.6783,210.6631 L262.5403,212.5361 L262.8943,213.5211 L263.4373,213.3231 C264.2953,213.0131 264.4653,213.2561 264.6843,213.8621 L264.8203,214.2471 L268.0783,223.2191 L268.2203,223.5771 C268.3343,223.9171 268.4913,224.3381 268.4323,224.7031 C268.3933,225.2391 267.9533,225.3291 267.5073,225.5201 L266.9823,225.7151 L267.3653,226.8101 L272.1623,225.0581 L271.7623,223.9731 C270.8933,224.2931 270.0443,224.5611 269.6653,223.5141 L266.0923,213.7081 L266.1633,213.6771 L275.6383,223.7991 L276.0623,223.6431 L276.5353,209.9031 L276.6083,209.8881 L279.9523,219.0401 C280.5043,220.6051 280.3793,220.8031 278.7773,221.4151 L279.1803,222.5101 L285.7053,220.1391 L285.3083,219.0401 Z M146.7043,112.2461 L153.1803,109.7461 C155.0083,109.0301 156.1933,108.2061 156.7943,107.1991 C157.5563,107.5711 158.4073,107.7201 159.4783,107.3411 C160.5103,106.9581 161.1123,106.1171 161.9113,105.8291 C162.9403,105.4571 163.5803,105.9471 165.3803,110.8901 L169.5593,122.3751 C171.3043,127.1541 171.1093,128.1311 170.1503,128.4791 C169.7603,128.6251 169.2633,128.5341 168.8393,128.6041 C168.6833,128.6251 168.5263,128.6381 168.3773,128.6631 C168.1963,128.0481 168.0673,127.4391 167.8283,126.8211 C165.6133,121.1201 162.5823,119.3921 159.5823,120.5431 C156.7223,121.6551 155.8843,124.1691 156.8853,126.7791 L157.9313,129.4661 C159.0403,132.3271 158.8593,134.2111 156.8853,134.9751 C154.7543,135.8031 153.5413,134.8051 152.1023,131.0961 L146.4533,116.5421 C145.4033,113.8451 145.1913,112.8331 146.7043,112.2461 Z M184.1103,96.8531 L184.7523,96.6101 C184.6233,97.7431 184.5203,98.9601 184.9223,100.0721 C186.0813,103.2631 189.3663,104.3171 192.3963,103.2181 C194.4513,102.4711 196.0403,100.6501 196.6653,98.5811 C197.3673,96.3321 196.8803,94.3581 196.0913,92.2131 C195.5183,90.6211 196.7213,89.9191 198.0663,89.4291 C200.7073,88.4661 204.0063,88.8731 205.1083,91.9141 C208.9503,102.4401 180.6513,101.6161 187.5403,120.5261 C187.6483,120.8421 187.8083,121.0681 187.9543,121.3741 C187.4813,121.5471 187.0403,121.7941 186.6203,122.1251 C186.2863,122.4371 185.9383,122.7401 185.5553,122.8821 C184.5933,123.2231 183.7963,122.5171 182.0833,117.8141 C179.8203,111.5991 175.8093,99.8641 184.1103,96.8531 Z M209.5893,104.1881 L210.2253,105.9501 C211.9393,110.6541 210.6533,114.2961 205.9393,116.0101 C203.6233,116.8451 201.0523,116.7021 200.0233,113.9071 C198.4793,109.6801 208.1773,107.5111 209.5893,104.1881 Z M128.9373,119.0411 L130.5263,118.4441 C132.3473,117.7271 132.8243,118.2771 133.5333,120.0911 L139.7103,135.9971 L140.1653,137.1831 C141.5833,140.8361 143.2933,144.7961 146.9513,146.4711 C150.6113,148.1541 155.0213,147.5381 158.6513,146.1131 C163.1523,144.3751 166.3533,141.6781 167.9393,138.2401 C168.9613,138.9661 170.1603,139.2301 171.4563,138.7541 C174.3213,137.7151 177.0673,135.8031 180.0943,134.6981 C183.3663,133.5091 186.8523,133.1511 191.1523,131.5871 C192.9803,130.9261 193.7103,129.2541 193.6233,127.3071 C197.3263,129.0081 201.8663,128.8681 206.0813,127.3211 C211.1083,125.4961 215.4363,122.2191 217.8663,117.2551 C220.5813,120.5121 225.1413,120.3901 228.8263,119.0551 C232.5663,117.6891 236.4243,114.3841 234.7903,109.9201 C233.9503,107.6161 231.7393,105.9781 229.1803,106.9091 C228.5383,107.1461 227.9633,107.5221 227.3243,107.7581 C226.4483,108.0781 225.7363,107.6191 224.6093,104.5081 L219.1483,89.5121 C216.9383,83.4391 214.6653,79.9431 209.5793,79.0841 C205.3343,78.3751 199.7803,79.9601 195.7963,81.4061 C191.4373,82.9841 188.6353,84.5411 186.8793,86.1161 C185.3333,86.0261 183.7693,86.2271 182.2533,86.7831 C175.5513,89.2131 172.0233,94.6571 173.1253,101.6581 L172.9683,101.7171 L170.7793,95.7241 C169.7403,92.8601 168.8363,92.5611 167.0633,93.2041 C165.2383,93.8681 163.8513,95.2821 162.0953,95.9051 C160.4933,96.4961 158.6233,96.2801 156.2943,97.1251 C154.8133,97.6631 154.0803,98.8771 153.8813,100.3651 C152.8813,100.0971 151.7653,100.1801 150.4963,100.6781 L143.6973,103.3191 C142.3483,103.8441 141.6393,104.1081 140.4433,101.0181 L138.5113,96.0401 C137.3423,93.0401 136.0463,92.0771 132.0183,93.6351 C125.9273,96.0121 125.4963,97.7191 127.0533,101.7511 L128.6353,105.7831 C129.6403,108.4111 129.0563,108.9951 126.3653,110.0421 C123.8213,111.0291 123.1113,113.3891 124.0923,115.9201 C124.9543,118.1441 127.4433,119.6361 128.9373,119.0411 Z M240.3663,156.7321 C238.9553,159.9201 237.7523,161.1301 234.9363,162.0931 C230.2793,163.6671 225.4823,161.4531 223.9213,156.8781 C223.4493,155.5191 223.5813,155.0981 225.6833,154.3891 L245.1943,147.7331 C250.0263,146.1091 250.0263,144.5731 248.7793,140.8641 C247.6943,137.6871 246.1923,135.0551 244.3773,132.8971 C244.4093,132.8901 244.4373,132.8971 244.4513,132.8901 C245.4903,132.5141 246.0673,131.6591 246.8763,131.3741 C247.9063,130.9921 248.5523,131.4751 250.3533,136.4221 L254.5623,147.8961 C256.3213,152.6721 256.1513,153.6421 255.1773,153.9971 C254.7913,154.1531 254.3093,154.0491 253.8643,154.1181 C253.4223,154.2091 252.9923,154.2261 252.5113,154.3541 C251.3233,151.3791 248.4073,150.4061 245.3823,151.4421 C242.7373,152.3381 242.0103,153.1281 240.3663,156.7321 Z M223.2783,182.4451 C224.2233,184.9031 226.4203,186.3241 228.9513,185.3511 C229.8933,184.9921 230.8673,184.6981 231.3353,185.8721 C231.6213,186.6061 231.6523,187.4021 231.7393,188.0861 L234.4633,206.9651 L234.3253,207.0211 L221.4083,186.5361 C217.4243,180.2311 216.4793,179.4451 209.2663,182.2011 C203.3263,184.5131 202.7093,186.2161 203.6803,192.2891 L207.8653,217.2431 L207.7053,217.3061 L198.0763,202.0151 C197.6243,201.3481 196.9093,200.1561 196.6063,199.3801 C196.5053,199.1371 196.4983,198.9461 196.4983,198.7431 C197.3123,198.5041 198.1393,198.2431 198.9533,197.9271 C202.2613,196.6411 202.6653,193.6691 201.4943,190.6621 C200.5803,188.2841 198.8663,186.5051 196.2653,187.5091 C195.7793,187.6871 195.3653,188.0171 194.9233,188.2841 C194.5803,188.5871 194.2663,188.9171 193.8643,189.0711 C192.8383,189.4741 192.0353,188.6041 190.2973,184.0891 L189.2953,181.5621 C193.3983,182.7021 196.9543,184.1521 201.2223,182.4761 C210.0343,179.0591 212.7943,171.4431 212.1373,163.4061 C217.1533,171.6031 225.6833,175.2911 235.5933,172.9091 C234.9783,173.2341 234.3383,173.5391 233.6653,173.7931 C231.0643,174.8041 228.1343,175.0161 225.8503,175.8961 C222.7533,177.0991 222.1483,179.5181 223.2783,182.4451 Z M182.6223,164.3941 C179.9563,157.5081 181.1553,152.4051 185.0383,150.8921 C188.9943,149.3601 193.8493,151.1011 196.8673,158.8531 C199.9543,166.7611 197.3953,171.2061 193.5963,172.7011 C190.0373,174.0921 185.5353,171.8991 182.6223,164.3941 Z M226.0103,137.2351 C230.0223,135.8661 232.9943,138.0031 233.7343,140.1651 C234.0403,141.0551 234.0503,141.6011 232.1903,142.2201 L224.0813,144.9801 C221.7343,145.7691 220.6783,146.0571 220.3233,145.0181 C219.6073,142.9291 221.9223,138.6361 226.0103,137.2351 Z M244.6213,179.5671 C245.2673,179.3261 246.0783,179.5461 246.7933,179.2681 C249.4083,178.2561 249.4533,175.7881 248.5393,173.4351 C247.6943,171.2311 246.2513,169.6391 244.2393,169.4071 C247.5653,167.3661 250.0793,164.8661 251.5393,162.2591 C252.7653,164.0671 254.5353,164.9951 256.5053,164.2611 C259.3803,163.2121 262.1203,161.3041 265.1333,160.1871 C268.4083,159.0021 271.8943,158.6231 276.1943,157.0381 C278.8353,156.0821 279.2773,153.1071 278.1623,150.0901 C277.2893,147.6981 275.6213,145.8701 272.9793,146.8251 C272.5093,147.0031 272.0473,147.2531 271.6373,147.5971 C271.3103,147.8961 270.9623,148.2021 270.5493,148.3451 C269.6073,148.6991 268.8043,148.0071 267.0623,143.2971 C264.8103,137.0861 260.7533,125.3781 269.0473,122.3191 L269.6903,122.1041 C269.5623,123.2201 269.4643,124.4471 269.8643,125.5451 C271.0533,128.7331 274.3213,129.7821 277.3663,128.6841 C281.6513,127.1021 282.8333,122.4131 281.3353,118.3431 C279.2213,112.6171 272.7523,110.2051 267.1533,112.2561 C260.4643,114.7101 256.9513,120.1681 258.0813,127.1611 L257.9233,127.2131 L255.7203,121.2491 C254.6663,118.3741 253.7523,118.0781 251.9943,118.7351 C250.1753,119.4101 248.7923,120.8141 247.0373,121.4611 C245.4383,122.0411 243.5503,121.8221 241.2393,122.6811 C238.9343,123.5251 238.3773,125.9341 239.0253,128.5481 C234.5613,126.2961 229.0663,126.0731 222.8323,128.1901 C212.5653,131.6911 207.5943,139.9641 207.9073,149.4321 C205.8913,145.7721 203.1233,142.3381 199.7803,140.1411 C194.9063,136.9401 189.8523,136.8081 184.3953,138.9451 C179.0903,141.0101 175.8583,145.0871 174.5573,150.4201 L174.3973,150.4791 L173.8833,149.1341 C172.8233,146.4331 171.9513,145.1431 169.8233,145.9631 C167.8553,146.7311 166.3303,148.2261 164.5043,148.9421 C162.7803,149.6201 160.7233,149.5051 159.2243,150.1001 C156.1413,151.2921 155.7483,154.2641 156.9133,157.2671 C157.8413,159.6421 159.5373,161.4461 162.1383,160.4241 C163.1773,160.0241 163.7613,159.1651 164.5533,158.8601 C165.4953,158.4811 166.3683,159.3291 168.1133,163.8411 L177.8533,188.9171 C179.5943,193.3461 179.5563,194.6461 178.5963,195.0141 C178.2013,195.1541 177.7553,195.1631 177.2833,195.1541 C176.7823,195.2721 176.3133,195.2611 175.7673,195.4691 C173.4833,196.3531 173.0213,198.7301 174.0423,201.3481 C175.2103,204.3331 177.5123,206.2741 180.4353,205.1331 C181.2393,204.8301 182.0383,204.4341 182.8373,203.9961 C183.7413,204.2531 184.6103,205.2381 185.7263,206.7671 L200.4223,227.2161 C202.9923,230.7581 204.8403,231.5171 207.6813,230.4011 C209.1793,229.8201 210.3743,228.4571 211.9663,227.8421 C213.2253,227.3661 215.0403,227.5711 216.5413,226.9911 C218.2063,226.3441 218.5643,225.3881 218.6233,223.6291 C218.6683,221.8801 218.2383,218.8741 217.9383,217.1601 L214.6233,195.6161 L214.7653,195.5601 L227.8253,216.8061 C229.0663,218.8811 231.3533,221.2661 234.2623,220.1391 C235.7813,219.5591 236.9803,218.1861 238.5653,217.5741 C239.8373,217.0871 241.6383,217.2851 243.1503,216.7221 C246.0953,215.5781 245.6223,211.3031 245.4203,208.6441 L243.8673,183.2231 C243.7043,180.4741 243.9223,179.8341 244.6213,179.5671 Z M162.4853,225.4161 C161.6653,223.3861 163.7263,218.9711 167.7303,217.3441 C171.6653,215.7591 174.7523,217.7161 175.6113,219.8291 C175.9513,220.7061 175.9833,221.2441 174.1823,221.9681 L166.2393,225.1831 C163.9523,226.1151 162.9023,226.4421 162.4853,225.4161 Z M187.8643,230.4391 C185.2713,231.4951 184.5933,232.3161 183.1643,236.0071 C181.9103,239.2571 180.7833,240.5541 178.0373,241.6561 C173.4663,243.5021 168.5683,241.5591 166.7433,237.0751 C166.2043,235.7331 166.3093,235.3161 168.3563,234.4911 L187.4813,226.7431 C192.1953,224.8421 192.1363,223.3131 190.6683,219.7011 C185.9523,208.0391 176.1773,203.5901 164.0603,208.4881 C151.1493,213.7151 147.2633,226.2681 152.2963,238.7011 C153.2253,240.9851 154.4243,242.9421 155.7413,244.7461 C155.5153,244.8581 155.2863,244.9301 155.0983,245.0701 C154.7403,245.3721 154.3963,245.6601 153.9863,245.7961 C153.0263,246.1091 152.2833,245.4661 150.6873,240.6201 L146.2273,227.0041 C143.1683,217.6471 134.8953,214.7171 127.7873,217.0451 C121.9823,218.9541 118.2243,223.5671 116.1733,229.0701 L116.0273,229.1281 L115.3533,227.0841 C114.2963,223.8721 113.9983,222.9091 111.7383,223.6581 C109.7083,224.3031 108.5263,225.5861 106.2733,226.3241 C103.5243,227.2231 101.2473,227.0741 99.3913,227.7031 C97.6113,228.2731 97.0553,231.2101 98.0633,234.2731 C98.8623,236.7001 100.4483,238.6011 103.1243,237.7181 C104.1673,237.3771 104.7863,236.5431 105.5963,236.2791 C106.6423,235.9311 107.3933,236.8661 108.9013,241.4571 L112.6973,253.0651 C114.2693,257.8261 114.2273,258.8211 113.0833,259.1901 C112.6973,259.3181 112.2043,259.2101 111.7803,259.2701 C111.2693,259.3311 110.8133,259.2971 110.2533,259.4891 C107.5813,260.3571 107.4033,262.8281 108.2133,265.2651 C109.2103,268.3251 111.4043,270.3751 113.4143,269.7181 C116.1603,268.8281 118.9543,266.9961 122.0273,265.9991 C125.3363,264.9141 128.8263,264.6681 132.5243,263.4611 C134.7813,262.7001 134.9513,259.8991 133.9323,256.8431 C132.8243,253.4501 131.3083,252.5991 130.0843,252.9981 C129.5253,253.1831 129.2263,253.3641 128.9623,253.6381 C128.6873,253.8991 128.4963,254.1421 128.1733,254.2531 C127.5333,254.4541 126.9013,253.6001 125.3683,248.9281 L122.8273,241.1801 C120.5043,234.0721 124.7423,230.6441 127.3943,229.7571 L127.5613,229.7161 C130.7383,228.7671 133.2553,230.1741 134.7283,234.6871 L138.0243,244.7741 C139.5123,249.2861 139.7973,250.4571 138.8233,250.7711 C138.5833,250.8291 138.2053,250.8011 137.8463,250.7421 C137.5683,250.7321 137.1833,250.6621 136.7793,250.8011 C135.6533,251.1731 134.6003,252.5991 135.7993,256.2311 C137.1553,260.4231 139.0663,261.3271 140.8533,260.7371 C143.7593,259.7871 145.2543,258.4001 148.3203,257.3961 C151.6153,256.3151 155.1263,256.0741 158.5813,254.9171 C160.9103,254.1591 161.8803,252.5221 161.9463,250.6041 C167.5083,254.0241 174.4393,254.6431 181.8813,251.6291 C192.1083,247.4891 197.7253,239.1881 195.3093,233.1991 C194.0233,230.0461 190.9373,229.1881 187.8643,230.4391 Z M98.8213,217.2301 L98.7093,216.8961 C103.3403,218.9261 108.6863,218.9441 113.4693,217.4551 C121.9683,214.8111 128.8893,206.7741 126.0523,197.6281 C122.9103,187.5751 115.1023,188.2331 106.4403,189.2411 L102.7553,189.6851 C98.3963,190.2311 97.1033,189.4771 96.5473,187.7111 C95.9113,185.6781 96.9643,183.9181 99.9753,182.9911 C107.7483,180.5741 107.7273,188.2221 114.6933,186.0461 C118.1063,184.9821 118.8293,182.7961 118.3393,181.1691 C118.1483,180.5611 117.8873,180.0421 117.6263,179.5291 C117.8663,179.3681 118.1063,179.2051 118.3703,179.1051 C119.2393,178.7741 120.0663,179.2881 121.8743,184.1311 L127.3423,198.8451 C130.3283,206.8881 137.0373,209.8361 145.2403,206.7741 C150.5693,204.8031 155.3803,200.2141 156.6943,194.7401 L156.8533,194.6661 L158.0393,197.8581 C158.4943,199.1191 159.8883,200.1561 161.8803,199.4321 C163.3993,198.8591 164.8383,197.4161 166.5873,196.7731 C168.4223,196.0751 170.5463,196.2061 172.5383,195.4591 C175.8783,194.2151 176.3133,191.2461 175.1653,188.2221 C174.2933,185.8371 172.6243,184.0021 169.9993,185.0031 C168.9683,185.3751 168.3673,186.2301 167.5773,186.5331 C166.7023,186.8461 165.8533,186.2611 164.0813,181.4951 L155.2093,157.6221 C154.5703,155.8671 153.7393,155.1791 151.6853,155.9361 C149.6963,156.6801 148.4803,158.0431 146.3353,158.8421 C143.7043,159.8151 141.6603,159.6731 139.0253,160.6361 C135.5353,161.9431 135.0973,164.9051 136.2233,167.9431 C137.1133,170.3341 138.7813,172.1561 141.4033,171.1861 C141.9583,170.9601 142.3033,170.6581 142.7133,170.3131 C143.0813,170.0981 143.4393,169.7841 143.8363,169.6391 C144.9453,169.2321 145.7373,170.3751 147.3263,174.6721 L149.3703,180.1751 C150.4653,183.1061 151.3103,185.8721 150.5803,189.0451 C150.0513,191.5001 148.3483,193.4851 146.0403,194.3431 C144.2953,194.9931 142.1993,194.6951 140.6733,193.5471 C139.1223,192.3031 138.0803,189.5151 137.4683,187.8461 L130.0993,168.0361 C129.3373,165.9751 128.7743,164.4671 126.6953,165.2351 C124.7103,165.9751 123.8143,167.2161 121.3523,168.1161 C118.8153,169.0621 116.5423,169.0931 114.0953,169.9311 C113.0593,169.3161 111.6683,169.4791 110.3683,169.8791 C107.7753,170.6891 106.1103,171.9331 106.8363,174.8041 C103.3533,173.0451 98.6823,173.1601 95.0323,174.3151 C86.4393,176.9841 81.5203,184.2871 84.2843,193.1191 C87.5343,203.5731 95.7483,202.5301 104.5183,201.3101 C110.1393,200.5311 112.3463,200.7401 113.0973,203.1651 C113.6083,204.7891 112.7813,207.2601 108.4913,208.6021 C106.4513,209.2391 104.2823,209.3881 102.1413,209.0721 C100.3683,208.8181 99.0223,207.6461 97.6323,206.5751 C95.2683,204.7231 93.7563,204.1321 90.7563,205.0671 C88.4903,205.7901 86.2483,207.7161 87.0643,210.3161 C87.5443,211.9141 88.4453,213.3471 88.9563,214.9601 C89.4773,216.6631 89.5643,218.3461 90.0723,219.9511 C90.9933,222.9511 93.3913,222.9201 95.8973,222.1311 C98.3343,221.3691 99.5583,219.5761 98.8213,217.2301 Z M100.7533,159.8921 L100.9203,159.8261 L102.0543,163.0101 C102.5133,164.2891 103.8783,165.3361 105.8843,164.6261 C107.3993,164.0951 108.8673,162.6621 110.6323,162.0261 C112.4683,161.3731 114.5953,161.5221 116.5973,160.8061 C117.4673,160.4971 118.1273,160.0731 118.6243,159.5551 C119.1903,159.5371 119.7533,159.5161 120.3863,159.2731 C123.2573,158.2171 125.9823,156.2981 129.0073,155.1711 C132.2683,153.9481 135.7503,153.5521 139.1713,152.2831 C142.5083,151.0381 142.9393,148.0631 141.8133,145.0491 C140.9263,142.6541 139.2543,140.8361 136.6263,141.8171 C136.1503,141.9941 135.6883,142.2541 135.2783,142.5881 C134.9403,142.8941 134.6103,143.2001 134.1933,143.3491 C133.5613,143.5931 132.6153,143.2211 130.7803,138.2991 L117.3553,102.2481 C116.2053,99.1521 115.0543,98.2341 113.1283,98.9431 C110.8273,99.7981 108.8183,101.4631 106.4343,102.3421 C104.2823,103.1421 101.8383,103.1421 99.7763,103.9171 C96.4333,105.1681 95.9983,108.1301 97.1453,111.2311 C98.0423,113.6121 99.7183,115.4441 102.3453,114.4631 C103.3743,114.0811 103.9583,113.2221 104.7513,112.9301 C106.0343,112.4511 106.8163,114.0641 108.2343,117.8841 L117.6543,143.1581 C119.1393,147.1561 119.4133,148.8631 118.2973,149.2761 C117.8973,149.4221 117.4113,149.3281 116.9873,149.4081 C116.4723,149.4891 116.0273,149.4891 115.4753,149.6931 C115.1023,149.8291 114.8763,150.0581 114.5953,150.2631 C114.4563,150.3081 114.3413,150.2601 114.1993,150.3081 C113.1703,150.6841 112.5653,151.5211 111.7733,151.8061 C110.8693,152.1271 110.0413,151.5211 108.3243,146.7181 L99.7763,122.7401 C99.1623,120.9841 98.3623,120.2751 96.2903,121.0191 C94.2773,121.7211 93.0473,123.0701 90.8813,123.8281 C88.2473,124.7771 86.2033,124.6141 83.5713,125.5491 C80.0473,126.7891 79.5703,129.7551 80.6653,132.7961 C81.5203,135.1911 83.1653,137.0301 85.8033,136.0951 C86.3633,135.9001 86.7033,135.5911 87.1273,135.2711 C87.4993,135.0451 87.8303,134.7431 88.2363,134.6071 C89.3553,134.1971 90.1383,135.3651 91.6743,139.6861 L93.6383,145.2021 C94.6913,148.1641 95.5043,150.9411 94.7193,154.0971 C94.1593,156.5521 92.4323,158.5151 90.1233,159.3531 C88.3653,159.9791 86.2583,159.6321 84.7533,158.4531 C83.2273,157.1911 82.2193,154.4131 81.6353,152.7281 L74.5303,132.8041 C73.7933,130.7421 73.2483,129.2191 71.1723,129.9421 C69.1773,130.6691 68.2693,131.9031 65.7843,132.7821 C63.1493,133.7211 60.7793,133.6581 58.2343,134.5791 C54.4663,135.9141 53.9933,138.8761 55.0783,141.9171 C55.9333,144.3091 57.5743,146.1621 60.2193,145.2091 C60.7793,145.0181 61.1203,144.7221 61.5433,144.3821 C61.9123,144.1591 62.2603,143.8641 62.6493,143.7151 C63.5353,143.4021 64.3493,143.9231 66.1013,148.7931 L71.3563,163.5911 C74.2353,171.6761 80.8883,174.6871 89.1373,171.7661 C94.4973,169.8581 99.3673,165.3251 100.7533,159.8921 Z" id="Fill-2" fill="#FEFEFE"></path>
        </g>
    </g>
</svg>